<mxfile host="app.diagrams.net" modified="2020-12-08T11:59:47.172Z" agent="5.0 (Windows NT 10.0; Win64; x64) AppleWebKit/537.36 (KHTML, like Gecko) Chrome/86.0.4240.198 Safari/537.36" etag="ePK-WMjR0HrCLOHVurJ1" version="13.10.9" type="github">
  <diagram id="SUUFwZpmwUmlEbqrKh8o" name="Page-1">
    <mxGraphModel dx="1483" dy="1883" grid="1" gridSize="10" guides="1" tooltips="1" connect="1" arrows="1" fold="1" page="1" pageScale="1" pageWidth="850" pageHeight="1100" math="0" shadow="0">
      <root>
        <mxCell id="0" />
        <mxCell id="1" parent="0" />
        <mxCell id="ZwHkRr_f-Hcnfg-7Ab5t-52" value="City" style="swimlane;fontStyle=1;align=center;verticalAlign=top;childLayout=stackLayout;horizontal=1;startSize=26;horizontalStack=0;resizeParent=1;resizeParentMax=0;resizeLast=0;collapsible=1;marginBottom=0;fillColor=#FFFFFF;" parent="1" vertex="1">
          <mxGeometry x="215" y="-1040" width="170" height="134" as="geometry" />
        </mxCell>
        <mxCell id="ZwHkRr_f-Hcnfg-7Ab5t-53" value="- searchedCityName: String&#xa;- actualCityName: String&#xa;- latitude: String&#xa;- longitude: String" style="text;strokeColor=none;align=left;verticalAlign=top;spacingLeft=4;spacingRight=4;overflow=hidden;rotatable=0;points=[[0,0.5],[1,0.5]];portConstraint=eastwest;fillColor=#ffffff;" parent="ZwHkRr_f-Hcnfg-7Ab5t-52" vertex="1">
          <mxGeometry y="26" width="170" height="74" as="geometry" />
        </mxCell>
        <mxCell id="ZwHkRr_f-Hcnfg-7Ab5t-54" value="" style="line;strokeWidth=1;fillColor=none;align=left;verticalAlign=middle;spacingTop=-1;spacingLeft=3;spacingRight=3;rotatable=0;labelPosition=right;points=[];portConstraint=eastwest;" parent="ZwHkRr_f-Hcnfg-7Ab5t-52" vertex="1">
          <mxGeometry y="100" width="170" height="4" as="geometry" />
        </mxCell>
        <mxCell id="ZwHkRr_f-Hcnfg-7Ab5t-55" value="+ constructor" style="text;strokeColor=none;align=left;verticalAlign=top;spacingLeft=4;spacingRight=4;overflow=hidden;rotatable=0;points=[[0,0.5],[1,0.5]];portConstraint=eastwest;fillColor=#ffffff;" parent="ZwHkRr_f-Hcnfg-7Ab5t-52" vertex="1">
          <mxGeometry y="104" width="170" height="30" as="geometry" />
        </mxCell>
        <mxCell id="ZwHkRr_f-Hcnfg-7Ab5t-95" style="edgeStyle=orthogonalEdgeStyle;rounded=0;sketch=0;orthogonalLoop=1;jettySize=auto;html=1;entryX=0.25;entryY=0;entryDx=0;entryDy=0;startArrow=none;startFill=0;endArrow=diamondThin;endFill=0;" parent="1" source="ZwHkRr_f-Hcnfg-7Ab5t-57" target="ZwHkRr_f-Hcnfg-7Ab5t-80" edge="1">
          <mxGeometry relative="1" as="geometry">
            <Array as="points">
              <mxPoint x="225" y="-250" />
              <mxPoint x="436" y="-250" />
            </Array>
          </mxGeometry>
        </mxCell>
        <mxCell id="ZwHkRr_f-Hcnfg-7Ab5t-57" value="interface&#xa;CityService" style="swimlane;fontStyle=1;align=center;verticalAlign=top;childLayout=stackLayout;horizontal=1;startSize=50;horizontalStack=0;resizeParent=1;resizeParentMax=0;resizeLast=0;collapsible=1;marginBottom=0;fillColor=#FFFFFF;" parent="1" vertex="1">
          <mxGeometry x="140" y="-500" width="170" height="130" as="geometry" />
        </mxCell>
        <mxCell id="ZwHkRr_f-Hcnfg-7Ab5t-58" value="" style="text;strokeColor=none;align=left;verticalAlign=top;spacingLeft=4;spacingRight=4;overflow=hidden;rotatable=0;points=[[0,0.5],[1,0.5]];portConstraint=eastwest;fillColor=#ffffff;" parent="ZwHkRr_f-Hcnfg-7Ab5t-57" vertex="1">
          <mxGeometry y="50" width="170" height="20" as="geometry" />
        </mxCell>
        <mxCell id="ZwHkRr_f-Hcnfg-7Ab5t-59" value="" style="line;strokeWidth=1;fillColor=none;align=left;verticalAlign=middle;spacingTop=-1;spacingLeft=3;spacingRight=3;rotatable=0;labelPosition=right;points=[];portConstraint=eastwest;" parent="ZwHkRr_f-Hcnfg-7Ab5t-57" vertex="1">
          <mxGeometry y="70" width="170" height="8" as="geometry" />
        </mxCell>
        <mxCell id="ZwHkRr_f-Hcnfg-7Ab5t-60" value="+ City recieveCity &#xa;(String searchedCityName)" style="text;strokeColor=none;align=left;verticalAlign=top;spacingLeft=4;spacingRight=4;overflow=hidden;rotatable=0;points=[[0,0.5],[1,0.5]];portConstraint=eastwest;fillColor=#ffffff;" parent="ZwHkRr_f-Hcnfg-7Ab5t-57" vertex="1">
          <mxGeometry y="78" width="170" height="52" as="geometry" />
        </mxCell>
        <mxCell id="ZwHkRr_f-Hcnfg-7Ab5t-77" style="edgeStyle=orthogonalEdgeStyle;rounded=0;sketch=0;orthogonalLoop=1;jettySize=auto;html=1;exitX=1;exitY=0.25;exitDx=0;exitDy=0;entryX=0;entryY=0.5;entryDx=0;entryDy=0;startArrow=block;startFill=0;endArrow=none;endFill=0;dashed=1;" parent="1" source="ZwHkRr_f-Hcnfg-7Ab5t-65" target="ZwHkRr_f-Hcnfg-7Ab5t-70" edge="1">
          <mxGeometry relative="1" as="geometry" />
        </mxCell>
        <mxCell id="ZwHkRr_f-Hcnfg-7Ab5t-79" style="edgeStyle=orthogonalEdgeStyle;rounded=0;sketch=0;orthogonalLoop=1;jettySize=auto;html=1;entryX=0.5;entryY=0;entryDx=0;entryDy=0;startArrow=none;startFill=0;endArrow=diamondThin;endFill=0;" parent="1" source="ZwHkRr_f-Hcnfg-7Ab5t-65" target="ZwHkRr_f-Hcnfg-7Ab5t-57" edge="1">
          <mxGeometry relative="1" as="geometry" />
        </mxCell>
        <mxCell id="ZwHkRr_f-Hcnfg-7Ab5t-65" value="interface&#xa;CityClient" style="swimlane;fontStyle=1;align=center;verticalAlign=top;childLayout=stackLayout;horizontal=1;startSize=50;horizontalStack=0;resizeParent=1;resizeParentMax=0;resizeLast=0;collapsible=1;marginBottom=0;fillColor=#FFFFFF;" parent="1" vertex="1">
          <mxGeometry x="140" y="-752" width="170" height="120" as="geometry" />
        </mxCell>
        <mxCell id="ZwHkRr_f-Hcnfg-7Ab5t-66" value="" style="text;strokeColor=none;align=left;verticalAlign=top;spacingLeft=4;spacingRight=4;overflow=hidden;rotatable=0;points=[[0,0.5],[1,0.5]];portConstraint=eastwest;fillColor=#ffffff;" parent="ZwHkRr_f-Hcnfg-7Ab5t-65" vertex="1">
          <mxGeometry y="50" width="170" height="20" as="geometry" />
        </mxCell>
        <mxCell id="ZwHkRr_f-Hcnfg-7Ab5t-67" value="" style="line;strokeWidth=1;fillColor=none;align=left;verticalAlign=middle;spacingTop=-1;spacingLeft=3;spacingRight=3;rotatable=0;labelPosition=right;points=[];portConstraint=eastwest;" parent="ZwHkRr_f-Hcnfg-7Ab5t-65" vertex="1">
          <mxGeometry y="70" width="170" height="8" as="geometry" />
        </mxCell>
        <mxCell id="ZwHkRr_f-Hcnfg-7Ab5t-68" value="+ City recieveCity &#xa;(String searchedCityName)" style="text;strokeColor=none;align=left;verticalAlign=top;spacingLeft=4;spacingRight=4;overflow=hidden;rotatable=0;points=[[0,0.5],[1,0.5]];portConstraint=eastwest;fillColor=#ffffff;" parent="ZwHkRr_f-Hcnfg-7Ab5t-65" vertex="1">
          <mxGeometry y="78" width="170" height="42" as="geometry" />
        </mxCell>
        <mxCell id="ZwHkRr_f-Hcnfg-7Ab5t-69" value="CityClientYandexApi" style="swimlane;fontStyle=1;align=center;verticalAlign=top;childLayout=stackLayout;horizontal=1;startSize=50;horizontalStack=0;resizeParent=1;resizeParentMax=0;resizeLast=0;collapsible=1;marginBottom=0;fillColor=#FFFFFF;" parent="1" vertex="1">
          <mxGeometry x="360" y="-870" width="167.5" height="150" as="geometry" />
        </mxCell>
        <mxCell id="ZwHkRr_f-Hcnfg-7Ab5t-70" value="" style="text;strokeColor=none;align=left;verticalAlign=top;spacingLeft=4;spacingRight=4;overflow=hidden;rotatable=0;points=[[0,0.5],[1,0.5]];portConstraint=eastwest;fillColor=#ffffff;" parent="ZwHkRr_f-Hcnfg-7Ab5t-69" vertex="1">
          <mxGeometry y="50" width="167.5" height="20" as="geometry" />
        </mxCell>
        <mxCell id="ZwHkRr_f-Hcnfg-7Ab5t-71" value="" style="line;strokeWidth=1;fillColor=none;align=left;verticalAlign=middle;spacingTop=-1;spacingLeft=3;spacingRight=3;rotatable=0;labelPosition=right;points=[];portConstraint=eastwest;" parent="ZwHkRr_f-Hcnfg-7Ab5t-69" vertex="1">
          <mxGeometry y="70" width="167.5" height="8" as="geometry" />
        </mxCell>
        <mxCell id="ZwHkRr_f-Hcnfg-7Ab5t-72" value="+ City recieveCity &#xa;(String searchedCityName)&#xa;- String recieveJsonFromApi&#xa;(String searchedCityName)" style="text;strokeColor=none;align=left;verticalAlign=top;spacingLeft=4;spacingRight=4;overflow=hidden;rotatable=0;points=[[0,0.5],[1,0.5]];portConstraint=eastwest;fillColor=#ffffff;" parent="ZwHkRr_f-Hcnfg-7Ab5t-69" vertex="1">
          <mxGeometry y="78" width="167.5" height="72" as="geometry" />
        </mxCell>
        <mxCell id="ZwHkRr_f-Hcnfg-7Ab5t-73" value="CityClientTxtFile" style="swimlane;fontStyle=1;align=center;verticalAlign=top;childLayout=stackLayout;horizontal=1;startSize=50;horizontalStack=0;resizeParent=1;resizeParentMax=0;resizeLast=0;collapsible=1;marginBottom=0;fillColor=#FFFFFF;" parent="1" vertex="1">
          <mxGeometry x="360" y="-710" width="170" height="120" as="geometry" />
        </mxCell>
        <mxCell id="ZwHkRr_f-Hcnfg-7Ab5t-74" value="" style="text;strokeColor=none;align=left;verticalAlign=top;spacingLeft=4;spacingRight=4;overflow=hidden;rotatable=0;points=[[0,0.5],[1,0.5]];portConstraint=eastwest;fillColor=#ffffff;" parent="ZwHkRr_f-Hcnfg-7Ab5t-73" vertex="1">
          <mxGeometry y="50" width="170" height="20" as="geometry" />
        </mxCell>
        <mxCell id="ZwHkRr_f-Hcnfg-7Ab5t-75" value="" style="line;strokeWidth=1;fillColor=none;align=left;verticalAlign=middle;spacingTop=-1;spacingLeft=3;spacingRight=3;rotatable=0;labelPosition=right;points=[];portConstraint=eastwest;" parent="ZwHkRr_f-Hcnfg-7Ab5t-73" vertex="1">
          <mxGeometry y="70" width="170" height="8" as="geometry" />
        </mxCell>
        <mxCell id="ZwHkRr_f-Hcnfg-7Ab5t-76" value="+ City recieveCity &#xa;(String searchedCityName)" style="text;strokeColor=none;align=left;verticalAlign=top;spacingLeft=4;spacingRight=4;overflow=hidden;rotatable=0;points=[[0,0.5],[1,0.5]];portConstraint=eastwest;fillColor=#ffffff;" parent="ZwHkRr_f-Hcnfg-7Ab5t-73" vertex="1">
          <mxGeometry y="78" width="170" height="42" as="geometry" />
        </mxCell>
        <mxCell id="ZwHkRr_f-Hcnfg-7Ab5t-78" style="edgeStyle=orthogonalEdgeStyle;rounded=0;sketch=0;orthogonalLoop=1;jettySize=auto;html=1;exitX=1;exitY=0.5;exitDx=0;exitDy=0;entryX=0;entryY=0.5;entryDx=0;entryDy=0;dashed=1;startArrow=block;startFill=0;endArrow=none;endFill=0;" parent="1" source="ZwHkRr_f-Hcnfg-7Ab5t-68" target="ZwHkRr_f-Hcnfg-7Ab5t-74" edge="1">
          <mxGeometry relative="1" as="geometry" />
        </mxCell>
        <mxCell id="ZwHkRr_f-Hcnfg-7Ab5t-80" value="WeatherController" style="swimlane;fontStyle=1;align=center;verticalAlign=top;childLayout=stackLayout;horizontal=1;startSize=50;horizontalStack=0;resizeParent=1;resizeParentMax=0;resizeLast=0;collapsible=1;marginBottom=0;fillColor=#FFFFFF;" parent="1" vertex="1">
          <mxGeometry x="380" y="-170" width="225" height="160" as="geometry" />
        </mxCell>
        <mxCell id="ZwHkRr_f-Hcnfg-7Ab5t-81" value="" style="text;strokeColor=none;align=left;verticalAlign=top;spacingLeft=4;spacingRight=4;overflow=hidden;rotatable=0;points=[[0,0.5],[1,0.5]];portConstraint=eastwest;fillColor=#ffffff;" parent="ZwHkRr_f-Hcnfg-7Ab5t-80" vertex="1">
          <mxGeometry y="50" width="225" height="20" as="geometry" />
        </mxCell>
        <mxCell id="ZwHkRr_f-Hcnfg-7Ab5t-82" value="" style="line;strokeWidth=1;fillColor=none;align=left;verticalAlign=middle;spacingTop=-1;spacingLeft=3;spacingRight=3;rotatable=0;labelPosition=right;points=[];portConstraint=eastwest;" parent="ZwHkRr_f-Hcnfg-7Ab5t-80" vertex="1">
          <mxGeometry y="70" width="225" height="8" as="geometry" />
        </mxCell>
        <mxCell id="ZwHkRr_f-Hcnfg-7Ab5t-83" value="+ String showWeather &#xa;(String searchedCityName) &#xa;+ String &#xa;redirectWeatherToOutfitController &#xa;(String city, RedirectAttributes attribute) " style="text;strokeColor=none;align=left;verticalAlign=top;spacingLeft=4;spacingRight=4;overflow=hidden;rotatable=0;points=[[0,0.5],[1,0.5]];portConstraint=eastwest;fillColor=#ffffff;" parent="ZwHkRr_f-Hcnfg-7Ab5t-80" vertex="1">
          <mxGeometry y="78" width="225" height="82" as="geometry" />
        </mxCell>
        <mxCell id="ZwHkRr_f-Hcnfg-7Ab5t-84" value="CityServiceValidationImpl&#xa;" style="swimlane;fontStyle=1;align=center;verticalAlign=top;childLayout=stackLayout;horizontal=1;startSize=30;horizontalStack=0;resizeParent=1;resizeParentMax=0;resizeLast=0;collapsible=1;marginBottom=0;fillColor=#FFFFFF;" parent="1" vertex="1">
          <mxGeometry x="360" y="-550" width="175" height="150" as="geometry" />
        </mxCell>
        <mxCell id="ZwHkRr_f-Hcnfg-7Ab5t-85" value="" style="text;strokeColor=none;align=left;verticalAlign=top;spacingLeft=4;spacingRight=4;overflow=hidden;rotatable=0;points=[[0,0.5],[1,0.5]];portConstraint=eastwest;fillColor=#ffffff;" parent="ZwHkRr_f-Hcnfg-7Ab5t-84" vertex="1">
          <mxGeometry y="30" width="175" height="20" as="geometry" />
        </mxCell>
        <mxCell id="ZwHkRr_f-Hcnfg-7Ab5t-86" value="" style="line;strokeWidth=1;fillColor=none;align=left;verticalAlign=middle;spacingTop=-1;spacingLeft=3;spacingRight=3;rotatable=0;labelPosition=right;points=[];portConstraint=eastwest;" parent="ZwHkRr_f-Hcnfg-7Ab5t-84" vertex="1">
          <mxGeometry y="50" width="175" height="8" as="geometry" />
        </mxCell>
        <mxCell id="ZwHkRr_f-Hcnfg-7Ab5t-87" value="+ City recieveCity &#xa;(String searchedCityName)&#xa;- City validateRecievedCity &#xa;                (City city) throws &#xa;           CityNameException" style="text;strokeColor=none;align=left;verticalAlign=top;spacingLeft=4;spacingRight=4;overflow=hidden;rotatable=0;points=[[0,0.5],[1,0.5]];portConstraint=eastwest;fillColor=#ffffff;" parent="ZwHkRr_f-Hcnfg-7Ab5t-84" vertex="1">
          <mxGeometry y="58" width="175" height="92" as="geometry" />
        </mxCell>
        <mxCell id="ZwHkRr_f-Hcnfg-7Ab5t-94" style="edgeStyle=orthogonalEdgeStyle;rounded=0;sketch=0;orthogonalLoop=1;jettySize=auto;html=1;exitX=0;exitY=0.5;exitDx=0;exitDy=0;entryX=0.991;entryY=0.225;entryDx=0;entryDy=0;entryPerimeter=0;dashed=1;startArrow=none;startFill=0;endArrow=block;endFill=0;" parent="1" source="ZwHkRr_f-Hcnfg-7Ab5t-88" target="ZwHkRr_f-Hcnfg-7Ab5t-59" edge="1">
          <mxGeometry relative="1" as="geometry" />
        </mxCell>
        <mxCell id="ZwHkRr_f-Hcnfg-7Ab5t-88" value="CityServicePlainImpl&#xa;" style="swimlane;fontStyle=1;align=center;verticalAlign=top;childLayout=stackLayout;horizontal=1;startSize=30;horizontalStack=0;resizeParent=1;resizeParentMax=0;resizeLast=0;collapsible=1;marginBottom=0;fillColor=#FFFFFF;" parent="1" vertex="1">
          <mxGeometry x="362.5" y="-370" width="170" height="90" as="geometry">
            <mxRectangle x="240" y="-232" width="150" height="30" as="alternateBounds" />
          </mxGeometry>
        </mxCell>
        <mxCell id="ZwHkRr_f-Hcnfg-7Ab5t-89" value="" style="text;strokeColor=none;align=left;verticalAlign=top;spacingLeft=4;spacingRight=4;overflow=hidden;rotatable=0;points=[[0,0.5],[1,0.5]];portConstraint=eastwest;fillColor=#ffffff;" parent="ZwHkRr_f-Hcnfg-7Ab5t-88" vertex="1">
          <mxGeometry y="30" width="170" height="10" as="geometry" />
        </mxCell>
        <mxCell id="ZwHkRr_f-Hcnfg-7Ab5t-90" value="" style="line;strokeWidth=1;fillColor=none;align=left;verticalAlign=middle;spacingTop=-1;spacingLeft=3;spacingRight=3;rotatable=0;labelPosition=right;points=[];portConstraint=eastwest;" parent="ZwHkRr_f-Hcnfg-7Ab5t-88" vertex="1">
          <mxGeometry y="40" width="170" height="8" as="geometry" />
        </mxCell>
        <mxCell id="ZwHkRr_f-Hcnfg-7Ab5t-91" value="+ City recieveCity &#xa;(String searchedCityName)" style="text;strokeColor=none;align=left;verticalAlign=top;spacingLeft=4;spacingRight=4;overflow=hidden;rotatable=0;points=[[0,0.5],[1,0.5]];portConstraint=eastwest;fillColor=#ffffff;" parent="ZwHkRr_f-Hcnfg-7Ab5t-88" vertex="1">
          <mxGeometry y="48" width="170" height="42" as="geometry" />
        </mxCell>
        <mxCell id="ZwHkRr_f-Hcnfg-7Ab5t-92" style="edgeStyle=orthogonalEdgeStyle;rounded=0;sketch=0;orthogonalLoop=1;jettySize=auto;html=1;exitX=0;exitY=0.5;exitDx=0;exitDy=0;entryX=1;entryY=0.25;entryDx=0;entryDy=0;startArrow=none;startFill=0;endArrow=block;endFill=0;dashed=1;" parent="1" source="ZwHkRr_f-Hcnfg-7Ab5t-85" target="ZwHkRr_f-Hcnfg-7Ab5t-57" edge="1">
          <mxGeometry relative="1" as="geometry" />
        </mxCell>
        <mxCell id="ZwHkRr_f-Hcnfg-7Ab5t-96" value="Weather" style="swimlane;fontStyle=1;align=center;verticalAlign=top;childLayout=stackLayout;horizontal=1;startSize=26;horizontalStack=0;resizeParent=1;resizeParentMax=0;resizeLast=0;collapsible=1;marginBottom=0;fillColor=#FFFFFF;" parent="1" vertex="1">
          <mxGeometry x="665" y="-1040" width="170" height="128" as="geometry" />
        </mxCell>
        <mxCell id="ZwHkRr_f-Hcnfg-7Ab5t-97" value="- temperature: int&#xa;- condition: String&#xa;- precipitationType: String&#xa;- iconUrl: String" style="text;strokeColor=none;align=left;verticalAlign=top;spacingLeft=4;spacingRight=4;overflow=hidden;rotatable=0;points=[[0,0.5],[1,0.5]];portConstraint=eastwest;fillColor=#ffffff;" parent="ZwHkRr_f-Hcnfg-7Ab5t-96" vertex="1">
          <mxGeometry y="26" width="170" height="64" as="geometry" />
        </mxCell>
        <mxCell id="ZwHkRr_f-Hcnfg-7Ab5t-98" value="" style="line;strokeWidth=1;fillColor=none;align=left;verticalAlign=middle;spacingTop=-1;spacingLeft=3;spacingRight=3;rotatable=0;labelPosition=right;points=[];portConstraint=eastwest;" parent="ZwHkRr_f-Hcnfg-7Ab5t-96" vertex="1">
          <mxGeometry y="90" width="170" height="8" as="geometry" />
        </mxCell>
        <mxCell id="ZwHkRr_f-Hcnfg-7Ab5t-99" value="+ constructor" style="text;strokeColor=none;align=left;verticalAlign=top;spacingLeft=4;spacingRight=4;overflow=hidden;rotatable=0;points=[[0,0.5],[1,0.5]];portConstraint=eastwest;fillColor=#ffffff;" parent="ZwHkRr_f-Hcnfg-7Ab5t-96" vertex="1">
          <mxGeometry y="98" width="170" height="30" as="geometry" />
        </mxCell>
        <mxCell id="ZwHkRr_f-Hcnfg-7Ab5t-129" style="edgeStyle=orthogonalEdgeStyle;rounded=0;sketch=0;orthogonalLoop=1;jettySize=auto;html=1;exitX=0.5;exitY=1;exitDx=0;exitDy=0;entryX=0.5;entryY=0;entryDx=0;entryDy=0;startArrow=none;startFill=0;endArrow=diamondThin;endFill=0;" parent="1" source="ZwHkRr_f-Hcnfg-7Ab5t-100" target="ZwHkRr_f-Hcnfg-7Ab5t-80" edge="1">
          <mxGeometry relative="1" as="geometry">
            <Array as="points">
              <mxPoint x="675" y="-250" />
              <mxPoint x="493" y="-250" />
            </Array>
          </mxGeometry>
        </mxCell>
        <mxCell id="ZwHkRr_f-Hcnfg-7Ab5t-100" value="interface&#xa;WeatherService" style="swimlane;fontStyle=1;align=center;verticalAlign=top;childLayout=stackLayout;horizontal=1;startSize=50;horizontalStack=0;resizeParent=1;resizeParentMax=0;resizeLast=0;collapsible=1;marginBottom=0;fillColor=#FFFFFF;" parent="1" vertex="1">
          <mxGeometry x="590" y="-500" width="170" height="130" as="geometry" />
        </mxCell>
        <mxCell id="ZwHkRr_f-Hcnfg-7Ab5t-101" value="" style="text;strokeColor=none;align=left;verticalAlign=top;spacingLeft=4;spacingRight=4;overflow=hidden;rotatable=0;points=[[0,0.5],[1,0.5]];portConstraint=eastwest;fillColor=#ffffff;" parent="ZwHkRr_f-Hcnfg-7Ab5t-100" vertex="1">
          <mxGeometry y="50" width="170" height="20" as="geometry" />
        </mxCell>
        <mxCell id="ZwHkRr_f-Hcnfg-7Ab5t-102" value="" style="line;strokeWidth=1;fillColor=none;align=left;verticalAlign=middle;spacingTop=-1;spacingLeft=3;spacingRight=3;rotatable=0;labelPosition=right;points=[];portConstraint=eastwest;" parent="ZwHkRr_f-Hcnfg-7Ab5t-100" vertex="1">
          <mxGeometry y="70" width="170" height="8" as="geometry" />
        </mxCell>
        <mxCell id="ZwHkRr_f-Hcnfg-7Ab5t-103" value="+ Weather recieveWeather &#xa;     (String lat, String lon)" style="text;strokeColor=none;align=left;verticalAlign=top;spacingLeft=4;spacingRight=4;overflow=hidden;rotatable=0;points=[[0,0.5],[1,0.5]];portConstraint=eastwest;fillColor=#ffffff;" parent="ZwHkRr_f-Hcnfg-7Ab5t-100" vertex="1">
          <mxGeometry y="78" width="170" height="52" as="geometry" />
        </mxCell>
        <mxCell id="ZwHkRr_f-Hcnfg-7Ab5t-104" style="edgeStyle=orthogonalEdgeStyle;rounded=0;sketch=0;orthogonalLoop=1;jettySize=auto;html=1;exitX=1;exitY=0.25;exitDx=0;exitDy=0;entryX=0;entryY=0.5;entryDx=0;entryDy=0;startArrow=block;startFill=0;endArrow=none;endFill=0;dashed=1;" parent="1" source="ZwHkRr_f-Hcnfg-7Ab5t-106" target="ZwHkRr_f-Hcnfg-7Ab5t-111" edge="1">
          <mxGeometry relative="1" as="geometry" />
        </mxCell>
        <mxCell id="ZwHkRr_f-Hcnfg-7Ab5t-105" style="edgeStyle=orthogonalEdgeStyle;rounded=0;sketch=0;orthogonalLoop=1;jettySize=auto;html=1;entryX=0.5;entryY=0;entryDx=0;entryDy=0;startArrow=none;startFill=0;endArrow=diamondThin;endFill=0;" parent="1" source="ZwHkRr_f-Hcnfg-7Ab5t-106" target="ZwHkRr_f-Hcnfg-7Ab5t-100" edge="1">
          <mxGeometry relative="1" as="geometry" />
        </mxCell>
        <mxCell id="ZwHkRr_f-Hcnfg-7Ab5t-106" value="interface&#xa;CityClient" style="swimlane;fontStyle=1;align=center;verticalAlign=top;childLayout=stackLayout;horizontal=1;startSize=50;horizontalStack=0;resizeParent=1;resizeParentMax=0;resizeLast=0;collapsible=1;marginBottom=0;fillColor=#FFFFFF;" parent="1" vertex="1">
          <mxGeometry x="590" y="-752" width="170" height="120" as="geometry" />
        </mxCell>
        <mxCell id="ZwHkRr_f-Hcnfg-7Ab5t-107" value="" style="text;strokeColor=none;align=left;verticalAlign=top;spacingLeft=4;spacingRight=4;overflow=hidden;rotatable=0;points=[[0,0.5],[1,0.5]];portConstraint=eastwest;fillColor=#ffffff;" parent="ZwHkRr_f-Hcnfg-7Ab5t-106" vertex="1">
          <mxGeometry y="50" width="170" height="20" as="geometry" />
        </mxCell>
        <mxCell id="ZwHkRr_f-Hcnfg-7Ab5t-108" value="" style="line;strokeWidth=1;fillColor=none;align=left;verticalAlign=middle;spacingTop=-1;spacingLeft=3;spacingRight=3;rotatable=0;labelPosition=right;points=[];portConstraint=eastwest;" parent="ZwHkRr_f-Hcnfg-7Ab5t-106" vertex="1">
          <mxGeometry y="70" width="170" height="8" as="geometry" />
        </mxCell>
        <mxCell id="ZwHkRr_f-Hcnfg-7Ab5t-109" value="+ Weather recieveWeather &#xa;(String lat, String lon)" style="text;strokeColor=none;align=left;verticalAlign=top;spacingLeft=4;spacingRight=4;overflow=hidden;rotatable=0;points=[[0,0.5],[1,0.5]];portConstraint=eastwest;fillColor=#ffffff;" parent="ZwHkRr_f-Hcnfg-7Ab5t-106" vertex="1">
          <mxGeometry y="78" width="170" height="42" as="geometry" />
        </mxCell>
        <mxCell id="ZwHkRr_f-Hcnfg-7Ab5t-110" value="WeatherClientYandexApi" style="swimlane;fontStyle=1;align=center;verticalAlign=top;childLayout=stackLayout;horizontal=1;startSize=50;horizontalStack=0;resizeParent=1;resizeParentMax=0;resizeLast=0;collapsible=1;marginBottom=0;fillColor=#FFFFFF;" parent="1" vertex="1">
          <mxGeometry x="810" y="-870" width="170" height="150" as="geometry" />
        </mxCell>
        <mxCell id="ZwHkRr_f-Hcnfg-7Ab5t-111" value="" style="text;strokeColor=none;align=left;verticalAlign=top;spacingLeft=4;spacingRight=4;overflow=hidden;rotatable=0;points=[[0,0.5],[1,0.5]];portConstraint=eastwest;fillColor=#ffffff;" parent="ZwHkRr_f-Hcnfg-7Ab5t-110" vertex="1">
          <mxGeometry y="50" width="170" height="20" as="geometry" />
        </mxCell>
        <mxCell id="ZwHkRr_f-Hcnfg-7Ab5t-112" value="" style="line;strokeWidth=1;fillColor=none;align=left;verticalAlign=middle;spacingTop=-1;spacingLeft=3;spacingRight=3;rotatable=0;labelPosition=right;points=[];portConstraint=eastwest;" parent="ZwHkRr_f-Hcnfg-7Ab5t-110" vertex="1">
          <mxGeometry y="70" width="170" height="8" as="geometry" />
        </mxCell>
        <mxCell id="ZwHkRr_f-Hcnfg-7Ab5t-113" value="+ Weather recieveWeather &#xa;(String lat, String lon)&#xa;- String recieveJsonFromApi&#xa;(String lat, String lon)" style="text;strokeColor=none;align=left;verticalAlign=top;spacingLeft=4;spacingRight=4;overflow=hidden;rotatable=0;points=[[0,0.5],[1,0.5]];portConstraint=eastwest;fillColor=#ffffff;" parent="ZwHkRr_f-Hcnfg-7Ab5t-110" vertex="1">
          <mxGeometry y="78" width="170" height="72" as="geometry" />
        </mxCell>
        <mxCell id="ZwHkRr_f-Hcnfg-7Ab5t-114" value="WeatherClientTxtFile" style="swimlane;fontStyle=1;align=center;verticalAlign=top;childLayout=stackLayout;horizontal=1;startSize=50;horizontalStack=0;resizeParent=1;resizeParentMax=0;resizeLast=0;collapsible=1;marginBottom=0;fillColor=#FFFFFF;" parent="1" vertex="1">
          <mxGeometry x="805" y="-700" width="170" height="120" as="geometry" />
        </mxCell>
        <mxCell id="ZwHkRr_f-Hcnfg-7Ab5t-115" value="" style="text;strokeColor=none;align=left;verticalAlign=top;spacingLeft=4;spacingRight=4;overflow=hidden;rotatable=0;points=[[0,0.5],[1,0.5]];portConstraint=eastwest;fillColor=#ffffff;" parent="ZwHkRr_f-Hcnfg-7Ab5t-114" vertex="1">
          <mxGeometry y="50" width="170" height="20" as="geometry" />
        </mxCell>
        <mxCell id="ZwHkRr_f-Hcnfg-7Ab5t-116" value="" style="line;strokeWidth=1;fillColor=none;align=left;verticalAlign=middle;spacingTop=-1;spacingLeft=3;spacingRight=3;rotatable=0;labelPosition=right;points=[];portConstraint=eastwest;" parent="ZwHkRr_f-Hcnfg-7Ab5t-114" vertex="1">
          <mxGeometry y="70" width="170" height="8" as="geometry" />
        </mxCell>
        <mxCell id="ZwHkRr_f-Hcnfg-7Ab5t-117" value="+ Weather recieveWeather &#xa;(String lat, String lon)" style="text;strokeColor=none;align=left;verticalAlign=top;spacingLeft=4;spacingRight=4;overflow=hidden;rotatable=0;points=[[0,0.5],[1,0.5]];portConstraint=eastwest;fillColor=#ffffff;" parent="ZwHkRr_f-Hcnfg-7Ab5t-114" vertex="1">
          <mxGeometry y="78" width="170" height="42" as="geometry" />
        </mxCell>
        <mxCell id="ZwHkRr_f-Hcnfg-7Ab5t-118" style="edgeStyle=orthogonalEdgeStyle;rounded=0;sketch=0;orthogonalLoop=1;jettySize=auto;html=1;exitX=1;exitY=0.5;exitDx=0;exitDy=0;entryX=0;entryY=0.5;entryDx=0;entryDy=0;dashed=1;startArrow=block;startFill=0;endArrow=none;endFill=0;" parent="1" source="ZwHkRr_f-Hcnfg-7Ab5t-109" target="ZwHkRr_f-Hcnfg-7Ab5t-115" edge="1">
          <mxGeometry relative="1" as="geometry" />
        </mxCell>
        <mxCell id="ZwHkRr_f-Hcnfg-7Ab5t-123" style="edgeStyle=orthogonalEdgeStyle;rounded=0;sketch=0;orthogonalLoop=1;jettySize=auto;html=1;exitX=0;exitY=0.5;exitDx=0;exitDy=0;entryX=0.991;entryY=0.225;entryDx=0;entryDy=0;entryPerimeter=0;dashed=1;startArrow=none;startFill=0;endArrow=block;endFill=0;" parent="1" source="ZwHkRr_f-Hcnfg-7Ab5t-124" target="ZwHkRr_f-Hcnfg-7Ab5t-102" edge="1">
          <mxGeometry relative="1" as="geometry" />
        </mxCell>
        <mxCell id="ZwHkRr_f-Hcnfg-7Ab5t-124" value="WeatherServicePlainImpl&#xa;" style="swimlane;fontStyle=1;align=center;verticalAlign=top;childLayout=stackLayout;horizontal=1;startSize=30;horizontalStack=0;resizeParent=1;resizeParentMax=0;resizeLast=0;collapsible=1;marginBottom=0;fillColor=#FFFFFF;" parent="1" vertex="1">
          <mxGeometry x="810" y="-510" width="170" height="110" as="geometry" />
        </mxCell>
        <mxCell id="ZwHkRr_f-Hcnfg-7Ab5t-125" value="" style="text;strokeColor=none;align=left;verticalAlign=top;spacingLeft=4;spacingRight=4;overflow=hidden;rotatable=0;points=[[0,0.5],[1,0.5]];portConstraint=eastwest;fillColor=#ffffff;" parent="ZwHkRr_f-Hcnfg-7Ab5t-124" vertex="1">
          <mxGeometry y="30" width="170" height="20" as="geometry" />
        </mxCell>
        <mxCell id="ZwHkRr_f-Hcnfg-7Ab5t-126" value="" style="line;strokeWidth=1;fillColor=none;align=left;verticalAlign=middle;spacingTop=-1;spacingLeft=3;spacingRight=3;rotatable=0;labelPosition=right;points=[];portConstraint=eastwest;" parent="ZwHkRr_f-Hcnfg-7Ab5t-124" vertex="1">
          <mxGeometry y="50" width="170" height="8" as="geometry" />
        </mxCell>
        <mxCell id="ZwHkRr_f-Hcnfg-7Ab5t-127" value="+ Weather recieveWeather &#xa;        (String lat, String lon)" style="text;strokeColor=none;align=left;verticalAlign=top;spacingLeft=4;spacingRight=4;overflow=hidden;rotatable=0;points=[[0,0.5],[1,0.5]];portConstraint=eastwest;fillColor=#ffffff;" parent="ZwHkRr_f-Hcnfg-7Ab5t-124" vertex="1">
          <mxGeometry y="58" width="170" height="52" as="geometry" />
        </mxCell>
        <mxCell id="ZwHkRr_f-Hcnfg-7Ab5t-130" value="Outfit" style="swimlane;fontStyle=1;align=center;verticalAlign=top;childLayout=stackLayout;horizontal=1;startSize=26;horizontalStack=0;resizeParent=1;resizeParentMax=0;resizeLast=0;collapsible=1;marginBottom=0;fillColor=#FFFFFF;" parent="1" vertex="1">
          <mxGeometry x="1180" y="-1040" width="180" height="138" as="geometry" />
        </mxCell>
        <mxCell id="ZwHkRr_f-Hcnfg-7Ab5t-131" value="- outfitName: String&#xa;- maxTemperatureToWear: int&#xa;- minTemperatureToWear: int&#xa;- accessories: String" style="text;strokeColor=none;align=left;verticalAlign=top;spacingLeft=4;spacingRight=4;overflow=hidden;rotatable=0;points=[[0,0.5],[1,0.5]];portConstraint=eastwest;fillColor=#ffffff;" parent="ZwHkRr_f-Hcnfg-7Ab5t-130" vertex="1">
          <mxGeometry y="26" width="180" height="74" as="geometry" />
        </mxCell>
        <mxCell id="ZwHkRr_f-Hcnfg-7Ab5t-132" value="" style="line;strokeWidth=1;fillColor=none;align=left;verticalAlign=middle;spacingTop=-1;spacingLeft=3;spacingRight=3;rotatable=0;labelPosition=right;points=[];portConstraint=eastwest;" parent="ZwHkRr_f-Hcnfg-7Ab5t-130" vertex="1">
          <mxGeometry y="100" width="180" height="8" as="geometry" />
        </mxCell>
        <mxCell id="ZwHkRr_f-Hcnfg-7Ab5t-133" value="+ constructor" style="text;strokeColor=none;align=left;verticalAlign=top;spacingLeft=4;spacingRight=4;overflow=hidden;rotatable=0;points=[[0,0.5],[1,0.5]];portConstraint=eastwest;fillColor=#ffffff;" parent="ZwHkRr_f-Hcnfg-7Ab5t-130" vertex="1">
          <mxGeometry y="108" width="180" height="30" as="geometry" />
        </mxCell>
        <mxCell id="ZwHkRr_f-Hcnfg-7Ab5t-175" style="edgeStyle=orthogonalEdgeStyle;rounded=0;sketch=0;orthogonalLoop=1;jettySize=auto;html=1;exitX=0.5;exitY=1;exitDx=0;exitDy=0;entryX=0.326;entryY=-0.014;entryDx=0;entryDy=0;entryPerimeter=0;startArrow=none;startFill=0;endArrow=diamondThin;endFill=0;" parent="1" source="ZwHkRr_f-Hcnfg-7Ab5t-134" target="ZwHkRr_f-Hcnfg-7Ab5t-159" edge="1">
          <mxGeometry relative="1" as="geometry" />
        </mxCell>
        <mxCell id="ZwHkRr_f-Hcnfg-7Ab5t-134" value="interface&#xa;OutfitService" style="swimlane;fontStyle=1;align=center;verticalAlign=top;childLayout=stackLayout;horizontal=1;startSize=50;horizontalStack=0;resizeParent=1;resizeParentMax=0;resizeLast=0;collapsible=1;marginBottom=0;fillColor=#FFFFFF;" parent="1" vertex="1">
          <mxGeometry x="1040" y="-530" width="180" height="210" as="geometry" />
        </mxCell>
        <mxCell id="ZwHkRr_f-Hcnfg-7Ab5t-135" value="" style="text;strokeColor=none;align=left;verticalAlign=top;spacingLeft=4;spacingRight=4;overflow=hidden;rotatable=0;points=[[0,0.5],[1,0.5]];portConstraint=eastwest;fillColor=#ffffff;" parent="ZwHkRr_f-Hcnfg-7Ab5t-134" vertex="1">
          <mxGeometry y="50" width="180" height="20" as="geometry" />
        </mxCell>
        <mxCell id="ZwHkRr_f-Hcnfg-7Ab5t-136" value="" style="line;strokeWidth=1;fillColor=none;align=left;verticalAlign=middle;spacingTop=-1;spacingLeft=3;spacingRight=3;rotatable=0;labelPosition=right;points=[];portConstraint=eastwest;" parent="ZwHkRr_f-Hcnfg-7Ab5t-134" vertex="1">
          <mxGeometry y="70" width="180" height="8" as="geometry" />
        </mxCell>
        <mxCell id="ZwHkRr_f-Hcnfg-7Ab5t-137" value="+ Outfit recieveOutfitByWeather &#xa;(Collection &lt;Outfit&gt; outfits, &#xa;Weather weather)&#xa;+ Outfit recieveOutfitById (int id)&#xa;+ Collection&lt;Outfit&gt; recieveAll ()&#xa;+ void addOutfit (OutfitDto outfit)&#xa;+ void deleteOutfit (int id)&#xa;+ void editOutfit (OutfitDto outfit)" style="text;strokeColor=none;align=left;verticalAlign=top;spacingLeft=4;spacingRight=4;overflow=hidden;rotatable=0;points=[[0,0.5],[1,0.5]];portConstraint=eastwest;fillColor=#ffffff;" parent="ZwHkRr_f-Hcnfg-7Ab5t-134" vertex="1">
          <mxGeometry y="78" width="180" height="132" as="geometry" />
        </mxCell>
        <mxCell id="ZwHkRr_f-Hcnfg-7Ab5t-138" style="edgeStyle=orthogonalEdgeStyle;rounded=0;sketch=0;orthogonalLoop=1;jettySize=auto;html=1;exitX=1;exitY=0.5;exitDx=0;exitDy=0;entryX=0;entryY=0.5;entryDx=0;entryDy=0;startArrow=block;startFill=0;endArrow=none;endFill=0;dashed=1;" parent="1" source="ZwHkRr_f-Hcnfg-7Ab5t-141" target="ZwHkRr_f-Hcnfg-7Ab5t-145" edge="1">
          <mxGeometry relative="1" as="geometry" />
        </mxCell>
        <mxCell id="ZwHkRr_f-Hcnfg-7Ab5t-139" style="edgeStyle=orthogonalEdgeStyle;rounded=0;sketch=0;orthogonalLoop=1;jettySize=auto;html=1;entryX=0.5;entryY=0;entryDx=0;entryDy=0;startArrow=none;startFill=0;endArrow=diamondThin;endFill=0;" parent="1" source="ZwHkRr_f-Hcnfg-7Ab5t-140" target="ZwHkRr_f-Hcnfg-7Ab5t-134" edge="1">
          <mxGeometry relative="1" as="geometry" />
        </mxCell>
        <mxCell id="ZwHkRr_f-Hcnfg-7Ab5t-140" value="interface&#xa;OutfitRepository" style="swimlane;fontStyle=1;align=center;verticalAlign=top;childLayout=stackLayout;horizontal=1;startSize=50;horizontalStack=0;resizeParent=1;resizeParentMax=0;resizeLast=0;collapsible=1;marginBottom=0;fillColor=#FFFFFF;" parent="1" vertex="1">
          <mxGeometry x="1030" y="-802" width="190" height="170" as="geometry" />
        </mxCell>
        <mxCell id="ZwHkRr_f-Hcnfg-7Ab5t-141" value="" style="text;strokeColor=none;align=left;verticalAlign=top;spacingLeft=4;spacingRight=4;overflow=hidden;rotatable=0;points=[[0,0.5],[1,0.5]];portConstraint=eastwest;fillColor=#ffffff;" parent="ZwHkRr_f-Hcnfg-7Ab5t-140" vertex="1">
          <mxGeometry y="50" width="190" height="20" as="geometry" />
        </mxCell>
        <mxCell id="ZwHkRr_f-Hcnfg-7Ab5t-142" value="" style="line;strokeWidth=1;fillColor=none;align=left;verticalAlign=middle;spacingTop=-1;spacingLeft=3;spacingRight=3;rotatable=0;labelPosition=right;points=[];portConstraint=eastwest;" parent="ZwHkRr_f-Hcnfg-7Ab5t-140" vertex="1">
          <mxGeometry y="70" width="190" height="8" as="geometry" />
        </mxCell>
        <mxCell id="ZwHkRr_f-Hcnfg-7Ab5t-143" value="+  Outfit recieveOufitById &#xa;(int id)&#xa;+ Collection&lt;Outfit&gt; recieveAll()&#xa;+ void addOutfit (OutfitDto outfit)&#xa;+ void deleteOutfit (int id)&#xa;+ void editOutfit (OutfitDto outfit)" style="text;strokeColor=none;align=left;verticalAlign=top;spacingLeft=4;spacingRight=4;overflow=hidden;rotatable=0;points=[[0,0.5],[1,0.5]];portConstraint=eastwest;fillColor=#ffffff;" parent="ZwHkRr_f-Hcnfg-7Ab5t-140" vertex="1">
          <mxGeometry y="78" width="190" height="92" as="geometry" />
        </mxCell>
        <mxCell id="ZwHkRr_f-Hcnfg-7Ab5t-144" value="OutfitRepositoryImpl" style="swimlane;fontStyle=1;align=center;verticalAlign=top;childLayout=stackLayout;horizontal=1;startSize=50;horizontalStack=0;resizeParent=1;resizeParentMax=0;resizeLast=0;collapsible=1;marginBottom=0;fillColor=#FFFFFF;" parent="1" vertex="1">
          <mxGeometry x="1267.5" y="-830" width="190" height="180" as="geometry" />
        </mxCell>
        <mxCell id="ZwHkRr_f-Hcnfg-7Ab5t-145" value="" style="text;strokeColor=none;align=left;verticalAlign=top;spacingLeft=4;spacingRight=4;overflow=hidden;rotatable=0;points=[[0,0.5],[1,0.5]];portConstraint=eastwest;fillColor=#ffffff;" parent="ZwHkRr_f-Hcnfg-7Ab5t-144" vertex="1">
          <mxGeometry y="50" width="190" height="20" as="geometry" />
        </mxCell>
        <mxCell id="ZwHkRr_f-Hcnfg-7Ab5t-146" value="" style="line;strokeWidth=1;fillColor=none;align=left;verticalAlign=middle;spacingTop=-1;spacingLeft=3;spacingRight=3;rotatable=0;labelPosition=right;points=[];portConstraint=eastwest;" parent="ZwHkRr_f-Hcnfg-7Ab5t-144" vertex="1">
          <mxGeometry y="70" width="190" height="8" as="geometry" />
        </mxCell>
        <mxCell id="ZwHkRr_f-Hcnfg-7Ab5t-147" value="+  Outfit recieveOufitById &#xa;(int id)&#xa;+ Collection&lt;Outfit&gt; recieveAll()&#xa;+ void addOutfit (OutfitDto outfit)&#xa;+ void deleteOutfit (int id)&#xa;+ void editOutfit (OutfitDto outfit)" style="text;strokeColor=none;align=left;verticalAlign=top;spacingLeft=4;spacingRight=4;overflow=hidden;rotatable=0;points=[[0,0.5],[1,0.5]];portConstraint=eastwest;fillColor=#ffffff;" parent="ZwHkRr_f-Hcnfg-7Ab5t-144" vertex="1">
          <mxGeometry y="78" width="190" height="102" as="geometry" />
        </mxCell>
        <mxCell id="ZwHkRr_f-Hcnfg-7Ab5t-153" style="edgeStyle=orthogonalEdgeStyle;rounded=0;sketch=0;orthogonalLoop=1;jettySize=auto;html=1;exitX=0;exitY=0.5;exitDx=0;exitDy=0;entryX=0.991;entryY=0.225;entryDx=0;entryDy=0;entryPerimeter=0;dashed=1;startArrow=none;startFill=0;endArrow=block;endFill=0;" parent="1" source="ZwHkRr_f-Hcnfg-7Ab5t-154" target="ZwHkRr_f-Hcnfg-7Ab5t-136" edge="1">
          <mxGeometry relative="1" as="geometry" />
        </mxCell>
        <mxCell id="ZwHkRr_f-Hcnfg-7Ab5t-154" value="OutfitServiceImpl" style="swimlane;fontStyle=1;align=center;verticalAlign=top;childLayout=stackLayout;horizontal=1;startSize=30;horizontalStack=0;resizeParent=1;resizeParentMax=0;resizeLast=0;collapsible=1;marginBottom=0;fillColor=#FFFFFF;" parent="1" vertex="1">
          <mxGeometry x="1260" y="-530" width="190" height="180" as="geometry" />
        </mxCell>
        <mxCell id="ZwHkRr_f-Hcnfg-7Ab5t-155" value="" style="text;strokeColor=none;align=left;verticalAlign=top;spacingLeft=4;spacingRight=4;overflow=hidden;rotatable=0;points=[[0,0.5],[1,0.5]];portConstraint=eastwest;fillColor=#ffffff;" parent="ZwHkRr_f-Hcnfg-7Ab5t-154" vertex="1">
          <mxGeometry y="30" width="190" height="20" as="geometry" />
        </mxCell>
        <mxCell id="ZwHkRr_f-Hcnfg-7Ab5t-156" value="" style="line;strokeWidth=1;fillColor=none;align=left;verticalAlign=middle;spacingTop=-1;spacingLeft=3;spacingRight=3;rotatable=0;labelPosition=right;points=[];portConstraint=eastwest;" parent="ZwHkRr_f-Hcnfg-7Ab5t-154" vertex="1">
          <mxGeometry y="50" width="190" height="8" as="geometry" />
        </mxCell>
        <mxCell id="ZwHkRr_f-Hcnfg-7Ab5t-157" value="+ Outfit recieveOutfitByWeather &#xa;(Collection &lt;Outfit&gt; outfits, &#xa;Weather weather)&#xa;+ Outfit recieveOutfitById (int id)&#xa;+ Collection&lt;Outfit&gt; recieveAll ()&#xa;+ void addOutfit (OutfitDto outfit)&#xa;+ void deleteOutfit (int id)&#xa;+ void editOutfit (OutfitDto outfit)" style="text;strokeColor=none;align=left;verticalAlign=top;spacingLeft=4;spacingRight=4;overflow=hidden;rotatable=0;points=[[0,0.5],[1,0.5]];portConstraint=eastwest;fillColor=#ffffff;" parent="ZwHkRr_f-Hcnfg-7Ab5t-154" vertex="1">
          <mxGeometry y="58" width="190" height="122" as="geometry" />
        </mxCell>
        <mxCell id="ZwHkRr_f-Hcnfg-7Ab5t-158" value="Actor" style="shape=umlActor;verticalLabelPosition=bottom;verticalAlign=top;html=1;outlineConnect=0;" parent="1" vertex="1">
          <mxGeometry x="730" y="510" width="30" height="60" as="geometry" />
        </mxCell>
        <mxCell id="ZwHkRr_f-Hcnfg-7Ab5t-159" value="OutfitController" style="swimlane;fontStyle=1;align=center;verticalAlign=top;childLayout=stackLayout;horizontal=1;startSize=50;horizontalStack=0;resizeParent=1;resizeParentMax=0;resizeLast=0;collapsible=1;marginBottom=0;fillColor=#FFFFFF;" parent="1" vertex="1">
          <mxGeometry x="850" y="-180" width="250" height="200" as="geometry" />
        </mxCell>
        <mxCell id="ZwHkRr_f-Hcnfg-7Ab5t-160" value="" style="text;strokeColor=none;align=left;verticalAlign=top;spacingLeft=4;spacingRight=4;overflow=hidden;rotatable=0;points=[[0,0.5],[1,0.5]];portConstraint=eastwest;fillColor=#ffffff;" parent="ZwHkRr_f-Hcnfg-7Ab5t-159" vertex="1">
          <mxGeometry y="50" width="250" height="20" as="geometry" />
        </mxCell>
        <mxCell id="ZwHkRr_f-Hcnfg-7Ab5t-161" value="" style="line;strokeWidth=1;fillColor=none;align=left;verticalAlign=middle;spacingTop=-1;spacingLeft=3;spacingRight=3;rotatable=0;labelPosition=right;points=[];portConstraint=eastwest;" parent="ZwHkRr_f-Hcnfg-7Ab5t-159" vertex="1">
          <mxGeometry y="70" width="250" height="8" as="geometry" />
        </mxCell>
        <mxCell id="ZwHkRr_f-Hcnfg-7Ab5t-162" value="+ String showOutfitAdvice &#xa;(Weather weather)&#xa;+ String showOutfitsList()&#xa;+ String showOutfitById(int id)&#xa;+ String deleteOutfitById (int id)&#xa;+ String editOutfit &#xa;(int id, String outfitName, int minTemperature, &#xa;int maxTemperature)" style="text;strokeColor=none;align=left;verticalAlign=top;spacingLeft=4;spacingRight=4;overflow=hidden;rotatable=0;points=[[0,0.5],[1,0.5]];portConstraint=eastwest;fillColor=#ffffff;" parent="ZwHkRr_f-Hcnfg-7Ab5t-159" vertex="1">
          <mxGeometry y="78" width="250" height="122" as="geometry" />
        </mxCell>
        <mxCell id="ZwHkRr_f-Hcnfg-7Ab5t-178" value="outfit_list.jsp" style="rounded=0;whiteSpace=wrap;html=1;" parent="1" vertex="1">
          <mxGeometry x="915" y="370" width="120" height="60" as="geometry" />
        </mxCell>
        <mxCell id="ZwHkRr_f-Hcnfg-7Ab5t-187" value="&lt;font style=&quot;font-size: 16px&quot;&gt;All URLs&lt;br&gt;&lt;br&gt;GET /weather?searchedCityName&lt;br&gt;&lt;br&gt;GET /weather/advice?searchedCityName (redirected)&lt;br&gt;&lt;br&gt;GET /outfit/list&lt;br&gt;&lt;br&gt;GET outfit/id&lt;br&gt;&lt;br&gt;DELETE /outfit?id&lt;br&gt;&lt;br&gt;POST /outfit/add&lt;br&gt;&lt;br&gt;POST /outfit/edit&lt;br&gt;&lt;/font&gt;" style="rounded=1;whiteSpace=wrap;html=1;fillColor=#ffffff;" parent="1" vertex="1">
          <mxGeometry x="40" y="122.5" width="265" height="330" as="geometry" />
        </mxCell>
        <mxCell id="ZwHkRr_f-Hcnfg-7Ab5t-241" style="edgeStyle=orthogonalEdgeStyle;rounded=0;sketch=0;orthogonalLoop=1;jettySize=auto;html=1;entryX=0.5;entryY=1;entryDx=0;entryDy=0;startArrow=classic;startFill=1;endArrow=openThin;endFill=0;" parent="1" source="ZwHkRr_f-Hcnfg-7Ab5t-188" target="ZwHkRr_f-Hcnfg-7Ab5t-228" edge="1">
          <mxGeometry relative="1" as="geometry" />
        </mxCell>
        <mxCell id="ZwHkRr_f-Hcnfg-7Ab5t-188" value="outfit_id.jsp" style="rounded=0;whiteSpace=wrap;html=1;" parent="1" vertex="1">
          <mxGeometry x="1125" y="370" width="120" height="60" as="geometry" />
        </mxCell>
        <mxCell id="ZwHkRr_f-Hcnfg-7Ab5t-201" value="&lt;font style=&quot;font-size: 13px&quot;&gt;GET /weather?searchedCityName&lt;br&gt;&lt;br&gt;GET /weather/advice?searchedCityName (redirected)&lt;br&gt;&lt;br&gt;GET /outfit/list&lt;br&gt;&lt;/font&gt;" style="rounded=1;whiteSpace=wrap;html=1;fillColor=#ffffff;" parent="1" vertex="1">
          <mxGeometry x="360" y="170" width="140" height="140" as="geometry" />
        </mxCell>
        <mxCell id="ZwHkRr_f-Hcnfg-7Ab5t-220" value="&lt;font style=&quot;font-size: 13px&quot;&gt;GET /weather?searchedCityName&lt;br&gt;&lt;br&gt;GET /weather/advice?searchedCityName (redirected)&lt;br&gt;&lt;br&gt;GET /outfit/list&lt;br&gt;&lt;/font&gt;" style="rounded=1;whiteSpace=wrap;html=1;fillColor=#ffffff;" parent="1" vertex="1">
          <mxGeometry x="525" y="170" width="140" height="140" as="geometry" />
        </mxCell>
        <mxCell id="ZwHkRr_f-Hcnfg-7Ab5t-236" style="edgeStyle=orthogonalEdgeStyle;rounded=0;sketch=0;orthogonalLoop=1;jettySize=auto;html=1;exitX=0.5;exitY=1;exitDx=0;exitDy=0;entryX=0.5;entryY=0;entryDx=0;entryDy=0;startArrow=classic;startFill=1;endArrow=openThin;endFill=0;" parent="1" source="ZwHkRr_f-Hcnfg-7Ab5t-221" target="ZwHkRr_f-Hcnfg-7Ab5t-226" edge="1">
          <mxGeometry relative="1" as="geometry" />
        </mxCell>
        <mxCell id="ZwHkRr_f-Hcnfg-7Ab5t-221" value="&lt;font style=&quot;font-size: 13px&quot;&gt;GET /weather?searchedCityName&lt;br&gt;&lt;br&gt;GET /weather/advice?searchedCityName (redirected)&lt;br&gt;&lt;br&gt;GET /outfit/list&lt;br&gt;&lt;/font&gt;" style="rounded=1;whiteSpace=wrap;html=1;fillColor=#ffffff;" parent="1" vertex="1">
          <mxGeometry x="710" y="170" width="140" height="140" as="geometry" />
        </mxCell>
        <mxCell id="ZwHkRr_f-Hcnfg-7Ab5t-223" style="edgeStyle=orthogonalEdgeStyle;rounded=0;sketch=0;orthogonalLoop=1;jettySize=auto;html=1;entryX=0.5;entryY=1;entryDx=0;entryDy=0;startArrow=classic;startFill=1;endArrow=openThin;endFill=0;" parent="1" source="ZwHkRr_f-Hcnfg-7Ab5t-222" target="ZwHkRr_f-Hcnfg-7Ab5t-201" edge="1">
          <mxGeometry relative="1" as="geometry" />
        </mxCell>
        <mxCell id="ZwHkRr_f-Hcnfg-7Ab5t-222" value="index.jsp" style="rounded=0;whiteSpace=wrap;html=1;" parent="1" vertex="1">
          <mxGeometry x="370" y="370" width="120" height="60" as="geometry" />
        </mxCell>
        <mxCell id="ZwHkRr_f-Hcnfg-7Ab5t-225" style="edgeStyle=orthogonalEdgeStyle;rounded=0;sketch=0;orthogonalLoop=1;jettySize=auto;html=1;exitX=0.5;exitY=0;exitDx=0;exitDy=0;entryX=0.5;entryY=1;entryDx=0;entryDy=0;startArrow=classic;startFill=1;endArrow=openThin;endFill=0;" parent="1" source="ZwHkRr_f-Hcnfg-7Ab5t-224" target="ZwHkRr_f-Hcnfg-7Ab5t-220" edge="1">
          <mxGeometry relative="1" as="geometry" />
        </mxCell>
        <mxCell id="ZwHkRr_f-Hcnfg-7Ab5t-224" value="weather.jsp" style="rounded=0;whiteSpace=wrap;html=1;" parent="1" vertex="1">
          <mxGeometry x="535" y="370" width="120" height="60" as="geometry" />
        </mxCell>
        <mxCell id="ZwHkRr_f-Hcnfg-7Ab5t-226" value="outfit_advice.jsp" style="rounded=0;whiteSpace=wrap;html=1;" parent="1" vertex="1">
          <mxGeometry x="720" y="370" width="120" height="60" as="geometry" />
        </mxCell>
        <mxCell id="ZwHkRr_f-Hcnfg-7Ab5t-239" style="edgeStyle=orthogonalEdgeStyle;rounded=0;sketch=0;orthogonalLoop=1;jettySize=auto;html=1;exitX=0.5;exitY=1;exitDx=0;exitDy=0;entryX=0.5;entryY=0;entryDx=0;entryDy=0;startArrow=classic;startFill=1;endArrow=openThin;endFill=0;" parent="1" source="ZwHkRr_f-Hcnfg-7Ab5t-227" target="ZwHkRr_f-Hcnfg-7Ab5t-178" edge="1">
          <mxGeometry relative="1" as="geometry" />
        </mxCell>
        <mxCell id="ZwHkRr_f-Hcnfg-7Ab5t-227" value="&lt;font style=&quot;font-size: 13px&quot;&gt;GET /weather?searchedCityName&lt;br&gt;&lt;br&gt;GET /weather/advice?searchedCityName (redirected)&lt;br&gt;&lt;br&gt;GET /outfit/list&lt;br&gt;&lt;br&gt;GET outfit/id&lt;br&gt;&lt;br&gt;DELETE /outfit?id&lt;br&gt;&lt;br&gt;POST /outfit/add&lt;br&gt;&lt;/font&gt;" style="rounded=1;whiteSpace=wrap;html=1;fillColor=#ffffff;" parent="1" vertex="1">
          <mxGeometry x="880" y="110" width="190" height="200" as="geometry" />
        </mxCell>
        <mxCell id="ZwHkRr_f-Hcnfg-7Ab5t-228" value="&lt;font style=&quot;font-size: 13px&quot;&gt;GET /weather?searchedCityName&lt;br&gt;&lt;br&gt;GET /weather/advice?searchedCityName (redirected)&lt;br&gt;&lt;br&gt;GET /outfit/list&lt;br&gt;&lt;br&gt;DELETE /outfit?id&lt;br&gt;&lt;br&gt;POST /outfit/edit&lt;br&gt;&lt;/font&gt;" style="rounded=1;whiteSpace=wrap;html=1;fillColor=#ffffff;" parent="1" vertex="1">
          <mxGeometry x="1090" y="122.5" width="190" height="187.5" as="geometry" />
        </mxCell>
        <mxCell id="ZwHkRr_f-Hcnfg-7Ab5t-234" value="Weather" style="edgeStyle=orthogonalEdgeStyle;rounded=0;sketch=0;orthogonalLoop=1;jettySize=auto;html=1;exitX=1;exitY=0.5;exitDx=0;exitDy=0;startArrow=none;startFill=0;endArrow=openThin;endFill=0;entryX=0;entryY=0.5;entryDx=0;entryDy=0;" parent="1" source="ZwHkRr_f-Hcnfg-7Ab5t-81" edge="1" target="ZwHkRr_f-Hcnfg-7Ab5t-159">
          <mxGeometry relative="1" as="geometry">
            <mxPoint x="740" y="-80.14285714285711" as="targetPoint" />
            <Array as="points">
              <mxPoint x="605" y="-80" />
            </Array>
          </mxGeometry>
        </mxCell>
        <mxCell id="ZwHkRr_f-Hcnfg-7Ab5t-243" value="" style="verticalLabelPosition=bottom;verticalAlign=top;html=1;shape=mxgraph.basic.6_point_star;fillColor=#ffffff;" parent="1" vertex="1">
          <mxGeometry x="345" y="-450" width="10" height="10" as="geometry" />
        </mxCell>
        <mxCell id="ZwHkRr_f-Hcnfg-7Ab5t-245" value="" style="endArrow=none;dashed=1;html=1;dashPattern=1 3;strokeWidth=5;fillColor=#f8cecc;strokeColor=#b85450;" parent="1" edge="1">
          <mxGeometry width="50" height="50" relative="1" as="geometry">
            <mxPoint x="140" y="-890" as="sourcePoint" />
            <mxPoint x="1540" y="-890" as="targetPoint" />
          </mxGeometry>
        </mxCell>
        <mxCell id="ZwHkRr_f-Hcnfg-7Ab5t-246" value="" style="endArrow=none;dashed=1;html=1;dashPattern=1 3;strokeWidth=5;fillColor=#f8cecc;strokeColor=#b85450;" parent="1" edge="1">
          <mxGeometry width="50" height="50" relative="1" as="geometry">
            <mxPoint x="130" y="-560" as="sourcePoint" />
            <mxPoint x="1530" y="-560" as="targetPoint" />
          </mxGeometry>
        </mxCell>
        <mxCell id="ZwHkRr_f-Hcnfg-7Ab5t-248" value="&lt;font style=&quot;font-size: 21px&quot;&gt;DAO Layer&lt;/font&gt;" style="text;html=1;strokeColor=none;fillColor=none;align=center;verticalAlign=middle;whiteSpace=wrap;rounded=0;strokeWidth=1;" parent="1" vertex="1">
          <mxGeometry x="1500" y="-760" width="100" height="80" as="geometry" />
        </mxCell>
        <mxCell id="ZwHkRr_f-Hcnfg-7Ab5t-249" value="&lt;span style=&quot;font-size: 21px&quot;&gt;Model&lt;/span&gt;" style="text;html=1;strokeColor=none;fillColor=none;align=center;verticalAlign=middle;whiteSpace=wrap;rounded=0;strokeWidth=1;" parent="1" vertex="1">
          <mxGeometry x="1500" y="-1030" width="100" height="80" as="geometry" />
        </mxCell>
        <mxCell id="ZwHkRr_f-Hcnfg-7Ab5t-250" value="&lt;font style=&quot;font-size: 21px&quot;&gt;Service Layer&lt;/font&gt;" style="text;html=1;strokeColor=none;fillColor=none;align=center;verticalAlign=middle;whiteSpace=wrap;rounded=0;strokeWidth=1;" parent="1" vertex="1">
          <mxGeometry x="1500" y="-485" width="100" height="80" as="geometry" />
        </mxCell>
        <mxCell id="ZwHkRr_f-Hcnfg-7Ab5t-251" value="" style="endArrow=none;dashed=1;html=1;dashPattern=1 3;strokeWidth=5;fillColor=#f8cecc;strokeColor=#b85450;" parent="1" edge="1">
          <mxGeometry width="50" height="50" relative="1" as="geometry">
            <mxPoint x="130" y="-230" as="sourcePoint" />
            <mxPoint x="1530" y="-230" as="targetPoint" />
          </mxGeometry>
        </mxCell>
        <mxCell id="ZwHkRr_f-Hcnfg-7Ab5t-252" value="&lt;font style=&quot;font-size: 21px&quot;&gt;Controller&lt;/font&gt;" style="text;html=1;strokeColor=none;fillColor=none;align=center;verticalAlign=middle;whiteSpace=wrap;rounded=0;strokeWidth=1;" parent="1" vertex="1">
          <mxGeometry x="1490" y="-160" width="100" height="80" as="geometry" />
        </mxCell>
        <mxCell id="ZwHkRr_f-Hcnfg-7Ab5t-253" value="" style="endArrow=none;dashed=1;html=1;dashPattern=1 3;strokeWidth=5;fillColor=#f8cecc;strokeColor=#b85450;" parent="1" edge="1">
          <mxGeometry width="50" height="50" relative="1" as="geometry">
            <mxPoint x="105" y="60" as="sourcePoint" />
            <mxPoint x="1505" y="60" as="targetPoint" />
          </mxGeometry>
        </mxCell>
        <mxCell id="ZwHkRr_f-Hcnfg-7Ab5t-254" value="&lt;font style=&quot;font-size: 21px&quot;&gt;View&lt;/font&gt;" style="text;html=1;strokeColor=none;fillColor=none;align=center;verticalAlign=middle;whiteSpace=wrap;rounded=0;strokeWidth=1;" parent="1" vertex="1">
          <mxGeometry x="1480" y="170" width="100" height="80" as="geometry" />
        </mxCell>
      </root>
    </mxGraphModel>
  </diagram>
</mxfile>
